HIERARCHY
ROOT hip
{
	OFFSET 0.000000 0.000000 0.000000 
	CHANNELS 6 Xposition Yposition Zposition Xrotation Zrotation Yrotation
	JOINT abdomen
	{
		OFFSET 0.000000 3.402643 0.000000 
		CHANNELS 3 Xrotation Zrotation Yrotation
		JOINT chest
		{
			OFFSET 0.000000 8.438565 -0.680529 
			CHANNELS 3 Xrotation Zrotation Yrotation
			JOINT neck
			{
				OFFSET 0.000000 10.207942 -0.272212 
				CHANNELS 3 Xrotation Zrotation Yrotation
				JOINT head
				{
					OFFSET 0.000000 3.130431 0.000000 
					CHANNELS 3 Xrotation Zrotation Yrotation
					End Site
					{
						OFFSET 0.000000 3.130435 0.000000 
					}
				}
			}
			JOINT lCollar
			{
				OFFSET 3.470700 6.669187 -0.816635 
				CHANNELS 3 Yrotation Zrotation Xrotation
				JOINT lShldr
				{
					OFFSET 3.198488 0.000000 0.000000 
					CHANNELS 3 Zrotation Yrotation Xrotation
					JOINT lForeArm
					{
						OFFSET 10.139888 0.000000 0.000000 
						CHANNELS 3 Yrotation Zrotation Xrotation
						JOINT lHand
						{
							OFFSET 8.370511 0.000000 0.000000 
							CHANNELS 3 Zrotation Yrotation Xrotation
							End Site
							{
								OFFSET 4.083176 0.000000 0.000000 
							}
						}
					}
				}
			}
			JOINT rCollar
			{
				OFFSET -3.470700 6.669187 -0.816635 
				CHANNELS 3 Yrotation Zrotation Xrotation
				JOINT rShldr
				{
					OFFSET -3.198488 0.000000 0.000000 
					CHANNELS 3 Zrotation Yrotation Xrotation
					JOINT rForeArm
					{
						OFFSET -10.139888 0.000000 0.000000 
						CHANNELS 3 Yrotation Zrotation Xrotation
						JOINT rHand
						{
							OFFSET -8.370511 0.000000 0.000000 
							CHANNELS 3 Zrotation Yrotation Xrotation
							End Site
							{
								OFFSET -4.083176 0.000000 0.000000 
							}
						}
					}
				}
			}
		}
	}
	JOINT lThigh
	{
		OFFSET 5.308129 -1.633274 1.361059 
		CHANNELS 3 Xrotation Zrotation Yrotation
		JOINT lShin
		{
			OFFSET -2.041588 -20.007561 0.000000 
			CHANNELS 3 Xrotation Zrotation Yrotation
			JOINT lFoot
			{
				OFFSET 0.000000 -19.190928 -1.224953 
				CHANNELS 3 Xrotation Yrotation Zrotation
				End Site
				{
					OFFSET 0.000000 -2.449906 4.627600 
				}
			}
		}
	}
	JOINT rThigh
	{
		OFFSET -5.308129 -1.633274 1.361059 
		CHANNELS 3 Xrotation Zrotation Yrotation
		JOINT rShin
		{
			OFFSET 2.041588 -20.007561 0.000000 
			CHANNELS 3 Xrotation Zrotation Yrotation
			JOINT rFoot
			{
				OFFSET 0.000000 -19.190928 -1.224953 
				CHANNELS 3 Xrotation Yrotation Zrotation
				End Site
				{
					OFFSET 0.000000 -2.449906 4.627600 
				}
			}
		}
	}
}
MOTION
Frames: 16
Frame Time: 0.033333
-10.242669 59.750935 3.051656 -12.632992 3.404592 -7.943439 0.000000 0.000000 0.000000 22.752117 -21.164576 9.555639 10.695828 -9.158620 -1.059578 2.158775 0.772498 -8.584646 31.052059 -25.000000 24.994659 -46.134560 -80.776062 95.553772 -81.917122 20.759243 25.963133 4.986582 2.076624 -3.532201 24.517412 -24.242243 24.995138 -17.757854 26.388514 -101.663605 5.850972 -4.440481 -5.510333 5.087228 -8.890239 -3.720736 -11.945450 9.008162 -1.265076 -1.774195 -2.096671 -3.252656 42.665321 -10.802428 -27.060091 -3.795263 -2.164883 -9.371394 20.574966 9.872427 -10.081008 25.815937 3.382385 14.757679 
-10.367125 58.171211 3.377060 -13.970140 1.653205 -5.246178 0.000000 0.000000 0.000000 23.777319 -18.460114 8.310692 12.188796 -9.873000 -0.179876 2.137764 3.844361 -9.396275 26.849083 -25.000000 25.000000 -34.124477 -69.969147 82.446663 -90.376991 24.527811 32.857533 2.663054 2.162834 -3.533851 25.555447 -21.739716 24.999756 -20.211351 39.486366 -59.020493 -0.522001 -0.510884 -15.967085 19.859436 -9.806334 -4.772962 -7.740886 8.443989 -1.077306 -1.386418 -1.142383 1.259820 43.421432 -10.113711 -25.020645 -3.327381 -1.336146 -8.288526 17.927073 9.069944 -12.569242 27.482128 3.756252 15.247868 
-10.428856 56.060028 3.914198 -14.956985 0.907094 -2.832294 0.000000 0.000000 0.000000 24.645796 -16.516590 6.611104 12.193875 -9.492093 0.256872 2.901582 3.175792 -8.723967 24.466948 -25.000000 25.000000 -24.138937 -63.432800 76.564392 -98.655457 29.262669 45.458336 -4.541164 -1.860580 -3.162137 28.666748 -27.262236 25.000000 -9.080672 51.081104 -34.946690 5.517390 3.075822 1.304248 23.384830 -7.092689 -4.287148 -4.754131 7.526773 -0.973646 3.643273 -0.730563 1.491953 41.704823 -9.311817 -24.201744 -3.356302 -1.755795 -6.561937 16.254850 7.158283 -10.632898 28.188683 4.026101 15.925623 
-10.538782 53.436283 4.670187 -13.651580 2.246016 -0.478531 0.000000 0.000000 0.000000 23.966717 -15.850672 6.790472 11.341662 -8.846699 -0.850878 3.124798 -1.353196 -8.205435 28.164232 -25.000000 24.999630 -15.433270 -59.748398 83.019554 -107.943329 34.576073 49.622513 -6.632966 -4.370052 -2.944627 36.427597 -30.000000 24.998642 22.289665 54.628960 -14.906326 26.437201 1.627445 13.884672 29.714775 -12.407431 -6.135382 -3.953045 5.026944 -1.617291 8.985705 -0.985262 1.813025 45.034882 -11.516763 -25.886894 -5.375206 -4.135567 -4.675950 15.652055 4.308820 -5.609350 31.430208 5.710299 19.004070 
-10.726817 50.295338 5.624635 -10.978449 3.294528 3.531342 0.000000 0.000000 0.000000 23.268692 -14.343455 8.659926 9.336163 -8.832399 -2.037335 3.403756 -4.176548 -10.546228 29.920870 -25.000000 24.993446 -22.557896 -57.330894 96.739014 -114.084869 38.264275 56.077820 -8.336812 -6.826209 -2.602343 37.308334 -29.982994 24.994486 43.841934 54.150539 6.996059 41.119366 3.265981 12.984182 32.617973 -17.162699 -7.814106 -6.671606 1.843498 -2.381226 22.349796 -1.139508 -3.194135 13.559488 0.297926 -7.860749 -8.503929 -5.857818 -4.833032 23.766283 4.686975 6.543333 11.360963 -0.251390 3.444840 
-11.294459 46.941673 5.879193 -9.131506 5.842895 12.183466 0.000000 0.000000 0.000000 25.312504 -13.317129 8.419140 11.122444 -7.829195 -5.214839 -0.615483 -5.292703 -11.995280 26.111597 -25.000000 24.995487 -35.637436 -56.015018 106.491180 -114.621376 38.631496 54.840897 -9.165803 -8.613983 -2.366049 31.741966 -24.543224 24.997055 55.199547 51.345722 22.048468 50.181137 5.372303 4.414518 30.213348 -20.726759 -8.539577 -12.467169 0.400354 -3.784979 34.305122 -1.125180 -15.517925 -10.769318 -0.138602 -0.934586 -13.368380 -9.921124 -8.574738 37.847694 5.677097 6.530665 -11.585600 0.578703 -5.022125 
-12.554717 46.386612 5.170135 -1.343959 6.604203 22.797113 0.000000 0.000000 0.000000 27.356707 -13.776797 5.911311 10.784217 -6.547902 -9.113454 -2.839600 -4.536980 -13.128405 20.833818 -25.000000 25.000000 -35.190796 -57.286285 103.122108 -110.775536 37.126057 51.021717 -9.499636 -8.462143 -2.335379 25.742493 -18.538116 25.000000 66.993790 50.832294 30.148537 53.014950 5.200369 -1.890783 24.427105 -23.284950 -8.222156 -20.856106 -3.827481 -6.557012 31.278162 -0.761827 -8.709484 -7.975029 0.159168 -2.876781 -22.152763 -11.158562 -7.953678 39.814178 4.560515 -6.355854 -14.096201 0.199246 -2.119410 
-13.899850 47.252842 4.352216 0.155363 5.954536 31.871790 0.000000 0.000000 0.000000 34.498234 -11.091874 2.656376 11.740460 -4.843743 -11.438523 -1.759312 -5.256703 -12.367422 23.575796 -25.000000 24.997866 -22.206991 -62.953377 87.970261 -107.329338 34.923267 51.011147 -12.679302 -7.565476 -2.128034 24.483084 -6.787352 25.000000 62.823437 53.565304 27.601843 58.686722 5.520071 -11.459803 14.858120 -25.541039 -6.788444 -20.803591 -5.582932 -10.266199 25.228460 1.824049 -16.106928 -0.492013 0.022998 -5.190120 -21.586538 -9.733572 -7.009427 35.096848 2.993759 -13.162394 -8.886608 -0.069238 0.182640 
-14.774577 47.514809 4.142331 4.368249 2.849674 37.574360 0.000000 0.000000 0.000000 35.351830 -7.807122 3.586698 11.966804 -3.948134 -11.120879 -1.111657 -7.013184 -11.612501 26.357506 -25.000000 25.000000 -17.234203 -64.152267 79.682259 -103.452797 30.751759 44.533966 -10.519661 -6.969118 -2.390368 24.687408 -5.794456 24.997936 66.159592 56.624893 30.972094 60.271729 5.687274 -18.242868 9.363585 -23.648375 -5.523673 -22.196766 -2.402525 -5.953319 16.261959 -3.468705 -20.940386 3.338064 -0.124153 -2.367265 -24.305367 -11.171087 -8.642836 30.603329 6.272586 -18.190399 -8.062709 0.063140 -1.591243 
-15.403071 48.408993 3.833045 8.041345 0.699264 41.087772 0.000000 0.000000 0.000000 35.595757 -6.166612 6.874870 14.131522 -0.707518 -11.749067 -2.594290 -10.897850 -11.440690 23.483072 -25.000000 25.000000 -31.769384 -61.924648 83.222694 -97.196533 26.272793 40.663876 -8.989049 -6.723306 -2.565740 21.100613 1.493716 24.993725 58.813480 57.001003 26.736059 61.753345 5.457270 -25.016703 9.977670 -25.382845 -5.807501 -20.556622 -1.629835 -4.315662 9.785311 -5.993407 -15.966452 5.861073 -0.210009 -3.991395 -23.118944 -12.846835 -9.821038 22.476582 8.083085 -14.736434 -5.243774 0.152412 -3.579754 
-15.942158 48.857117 3.517604 10.591979 -2.477663 44.417542 0.000000 0.000000 0.000000 34.766872 -4.176733 8.106995 14.369962 2.022054 -12.400246 -1.754173 -12.402201 -10.763156 20.774023 -25.000000 24.996292 -36.538250 -56.631649 81.132637 -96.529770 24.854727 40.631790 -5.583772 -5.086028 -2.965483 15.810885 8.661971 24.992699 54.436867 59.166630 25.495358 62.585800 5.626086 -34.383854 8.995695 -26.134888 -5.676352 -20.868013 -1.162261 -5.024470 6.870459 -5.184402 -18.457851 5.155749 -0.241802 -4.761786 -24.457493 -12.144887 -8.393967 17.058874 7.801101 -18.397482 -2.444169 0.048699 -3.391838 
-16.231316 48.818062 3.417243 12.523423 -2.580195 47.259823 0.000000 0.000000 0.000000 34.927898 -3.563315 6.164074 14.892346 1.358743 -13.353427 -1.508507 -9.527878 -10.191640 23.386137 -25.000000 25.000000 -24.749453 -52.025856 72.606422 -101.498650 25.240860 38.969200 -4.655247 -0.865272 -3.270576 12.126752 10.413979 24.991257 54.105999 63.477566 26.910654 59.777283 5.695439 -35.459866 15.578922 -28.150661 -7.417852 -17.006475 -2.371701 -6.530632 -1.621413 -4.905612 -18.085747 6.877457 -0.450004 -6.970754 -27.187189 -13.359268 -7.196065 18.434923 6.091359 -23.298958 -2.290010 -0.009394 -2.171748 
-16.360170 49.101280 3.317234 13.019691 -1.548564 49.682648 0.000000 0.000000 0.000000 36.466354 -2.863874 4.067176 15.238071 -0.294034 -13.769747 0.544846 -5.376737 -11.094542 29.081238 -25.000000 24.998068 -10.642419 -50.990269 64.261230 -103.248489 25.166267 33.964745 -0.139297 0.686207 -3.458425 14.300786 6.490371 24.992205 56.651455 65.494377 24.835236 56.821392 5.216340 -33.549690 21.630964 -28.502234 -8.845647 -18.339098 -4.120990 -6.824542 3.523016 -4.939937 -19.623377 6.552389 -0.410673 -6.507250 -25.355453 -14.673612 -7.352122 16.374825 5.284747 -23.954185 -1.167651 -0.034144 -1.816757 
-16.365217 49.067802 3.157658 13.157819 -1.953877 50.743656 0.000000 0.000000 0.000000 36.505562 -2.629602 4.213057 14.369372 0.104434 -13.544934 1.964695 -4.467027 -11.647823 26.132517 -25.000000 24.993084 -10.476954 -50.021942 58.509190 -101.277412 23.000883 34.253159 1.845307 2.119906 -3.505590 15.231172 5.965877 24.996176 54.223969 64.762810 20.525738 57.130207 4.781861 -32.395317 23.538494 -27.820808 -9.122628 -18.307198 -3.504953 -6.822870 3.385430 -4.842448 -26.351593 5.619140 -0.350508 -6.141866 -25.966360 -14.804421 -6.874695 16.899866 4.800508 -25.516359 -1.075934 -0.044698 -1.097062 
-16.251513 49.036003 2.897468 13.591045 -2.125143 52.101276 0.000000 0.000000 0.000000 35.633507 -2.653785 5.494133 14.557835 1.950905 -14.129362 -0.199736 -7.143950 -11.359422 20.744341 -25.000000 24.998972 -17.411171 -49.674778 55.943439 -96.965820 19.739567 35.643364 -1.201927 0.632650 -3.421962 10.194827 12.823094 24.997129 39.685246 61.346806 15.371814 60.538616 4.730550 -34.513702 20.842739 -26.091579 -8.161367 -17.735582 -3.239544 -6.919249 0.845499 -5.348466 -31.511753 6.593053 -0.499220 -7.964163 -26.684082 -15.660357 -6.620389 17.885883 4.267031 -27.162413 -1.111266 -0.037950 -0.088194 
-16.091927 49.249310 2.573123 13.705014 -1.668896 52.873722 0.000000 0.000000 0.000000 35.328693 -2.857733 5.534081 14.697950 1.883722 -14.236073 0.315771 -7.351807 -11.473364 20.663654 -25.000000 25.000000 -15.846848 -48.603470 51.681103 -95.320976 18.603182 37.999954 -5.934333 -1.089699 -3.195338 6.737404 16.062727 24.991785 32.072460 58.263653 14.644255 63.007107 4.204691 -36.166992 17.801033 -24.259676 -7.175712 -20.687763 -3.563307 -5.861644 6.652135 -6.425240 -31.944792 7.607963 -0.575697 -8.435401 -24.956303 -16.119455 -6.518395 15.150311 3.519748 -28.173517 0.576187 -0.033494 0.081315 
